<mxfile host="app.diagrams.net" modified="2023-10-01T12:45:53.680Z" agent="Mozilla/5.0 (Windows NT 10.0; Win64; x64) AppleWebKit/537.36 (KHTML, like Gecko) Chrome/117.0.0.0 Safari/537.36" version="22.0.0" etag="3YtLrZq_poxXnaYp4A7L" type="github">
  <diagram name="第 1 页" id="sKm2sjFZM9v6-dMBPrZu">
    <mxGraphModel>
      <root>
        <mxCell id="0" />
        <mxCell id="1" parent="0" />
      </root>
    </mxGraphModel>
  </diagram>
</mxfile>
